<?xml-stylesheet type="text/css" href="../../../css/main.css"?>
  <svg version="1.1" id="Layer_1" xmlns="http://www.w3.org/2000/svg" xmlns:xlink="http://www.w3.org/1999/xlink" x="0px" y="0px" viewBox="0 0 30 30" enable-background="new 0 0 30 30" xml:space="preserve">
    <path d="M15.4,23c2.4-0.6,4-2.6,4-5c0-2.8-2.2-4.8-5.2-5v3.2l-5.4-4.8l5.4-4.6v3h0.2c3.6,0,7,3.2,7,7
  c0,3.4-2.8,6.2-6,6.6V23z M0,15c0,8.4,6.8,15,15,15c8.4,0,15-6.6,15-15c0-8.2-6.6-15-15-15C6.8,0,0,6.8,0,15 M2,15C2,7.8,7.8,2,15,2
  c7.2,0,13.2,5.8,13.2,13c0,7.4-6,13.2-13.2,13.2C7.8,28.2,2,22.4,2,15" />
  </svg>
