<?xml-stylesheet type="text/css" href="../../../css/main.css"?>
  <svg version="1.1" id="Layer_1" xmlns="http://www.w3.org/2000/svg" xmlns:xlink="http://www.w3.org/1999/xlink" x="0px" y="0px" viewBox="0 0 30 30" enable-background="new 0 0 30 30" xml:space="preserve">
    <path d="M17.7,13.5l-4.6-4.2h3.8l6.2,5.8l-6.2,5.8h-3.8l4.6-4.4H7.2v-3H17.7z M14.9,1.8c7.2,0,13.3,6,13.3,13.3
  c0,7.2-6,13.1-13.3,13.1c-7.2,0-13.1-5.8-13.1-13.1C1.8,7.9,7.7,1.8,14.9,1.8 M14.9,0C6.6,0,0,6.6,0,15.1C0,23.4,6.6,30,14.9,30
  C23.4,30,30,23.4,30,15.1C30,6.6,23.4,0,14.9,0" />
  </svg>
