<?xml-stylesheet type="text/css" href="../../../css/main.css"?>
  <svg version="1.1" id="Layer_1" xmlns="http://www.w3.org/2000/svg" xmlns:xlink="http://www.w3.org/1999/xlink" x="0px" y="0px" viewBox="0 0 30 30" enable-background="new 0 0 30 30" xml:space="preserve">
    <g>
      <g>
        <g>
          <path d="M3.5,12.7H0V9.1C0,3.6,3.2,0,8.1,0s8.1,3.6,8.1,9.1v1.2h-3.5V9.1c0-2.1-0.6-5.7-4.6-5.7
        c-4.2,0-4.6,4-4.6,5.7V12.7z" />
        </g>
        <g>
          <path d="M26.5,11.5H10.4c-1.9,0-3.5,1.6-3.5,3.5v11.5c0,1.9,1.6,3.5,3.5,3.5h16.2c1.9,0,3.5-1.5,3.5-3.5V15
        C30,13.1,28.4,11.5,26.5,11.5 M19.6,21.6v2.6c0,0.6-0.5,1.2-1.2,1.2c-0.6,0-1.2-0.5-1.2-1.2v-2.6c-0.7-0.4-1.2-1.1-1.2-2
        c0-1.3,1-2.3,2.3-2.3c1.3,0,2.3,1,2.3,2.3C20.8,20.5,20.3,21.2,19.6,21.6" />
        </g>
      </g>
    </g>
  </svg>
