<?xml-stylesheet type="text/css" href="../../../css/main.css"?>
  <svg version="1.1" id="Layer_1" xmlns="http://www.w3.org/2000/svg" xmlns:xlink="http://www.w3.org/1999/xlink" x="0px" y="0px" viewBox="0 0 30 30" enable-background="new 0 0 30 30" xml:space="preserve">
    <g>
      <g>
        <g>
          <path d="M27.2,14.2c-0.2,0-0.3,0-0.5-0.1c-0.4-0.3-0.6-0.8-0.3-1.2c0,0,1.8-3,1.8-7.1c0-2.3-1.5-4-3.6-4
        c-2,0-3.6,1.6-3.6,3.6c0,0.8,0.4,3,0.6,3.7c0.1,0.5-0.2,1-0.7,1.1c-0.5,0.1-1-0.2-1.1-0.7c-0.1-0.3-0.6-2.9-0.6-4.1
        c0-2.9,2.4-5.3,5.3-5.3c3,0,5.3,2.5,5.3,5.8c0,4.6-2,7.9-2.1,8C27.8,14,27.5,14.2,27.2,14.2z" />
        </g>
        <g>
          <path d="M24.8,7.2c-0.2-1.7-0.2-1.7-1.9-1.9c-0.3,0-0.6-0.1-0.9-0.1c0,0.1,0,0.1,0,0.2c0,0.4,0.1,1.1,0.2,1.9
        c0.6,0.4,1.1,1.2,1.1,2c0,1.4-1.1,2.4-2.4,2.4c-1.4,0-2.4-1.1-2.4-2.4c0-0.5,0.2-1,0.4-1.4C18.6,7,18.5,6,18.5,5.3
        c0-0.2,0-0.3,0-0.5c-2.5-0.1-4.8-0.1-5,0.1L0.6,17.9c-0.8,0.8-0.8,2.1,0,2.9l8.6,8.6c0.8,0.8,2.1,0.8,2.9,0l12.9-12.9
        C25.7,15.9,25.2,10.1,24.8,7.2 M16.3,17.8c-0.1-0.4-0.4-1.2-1.2-2c-0.7-0.7-1.3-0.6-1.6-0.3c-0.4,0.4-0.2,1,0.4,2.3
        c0.9,1.8,0.8,2.9-0.2,4c-1,1-2.5,1.1-4,0.1l-1.1,1.2l-1.1-1.1l1.1-1.1C7.7,20,7.2,19,7,18.4l1.6-1c0.2,0.7,0.6,1.6,1.4,2.3
        c0.6,0.6,1.3,0.8,1.8,0.4c0.4-0.4,0.3-1.1-0.2-2.2c-0.8-1.6-1-3,0-4.1c1-1,2.5-1.1,3.9-0.1l1.1-1.1l1.1,1.1l-1,1
        c0.7,0.8,1.1,1.4,1.3,2L16.3,17.8z" />
        </g>
      </g>
    </g>
  </svg>
