<?xml-stylesheet type="text/css" href="../../../css/main.css"?>
  <svg version="1.1" id="Layer_1" xmlns="http://www.w3.org/2000/svg" xmlns:xlink="http://www.w3.org/1999/xlink" x="0px" y="0px" viewBox="0 0 30 30" enable-background="new 0 0 30 30" xml:space="preserve">
    <g>
      <path d="M13,0.1c-2.7,0.4-5.1,1.4-7.2,3c1,0.8,2.1,1.5,3.2,2.1C10.1,3.3,11.4,1.6,13,0.1z" />
      <path d="M23.2,14.4H30c-0.2-4.1-2-7.8-4.8-10.4c-1.2,1-2.5,1.8-3.9,2.5C22.4,8.9,23.1,11.6,23.2,14.4z" />
      <path d="M19.5,5.8c-1.1-1.9-2.4-3.6-4-5.1v5.8C16.9,6.4,18.3,6.2,19.5,5.8z" />
      <path d="M20.7,5.3C22,4.8,23.2,4,24.2,3.2c-2.1-1.7-4.7-2.8-7.6-3.1C18.3,1.6,19.7,3.4,20.7,5.3z" />
      <path d="M15.5,29.3c1.6-1.4,2.9-3,3.9-4.9c-1.2-0.4-2.6-0.7-3.9-0.7V29.3z" />
      <path d="M15.5,22.4c1.6,0.1,3.1,0.4,4.5,0.9c1.1-2.3,1.8-4.9,1.9-7.7h-6.4V22.4z" />
      <path d="M8.5,6.3C7.2,5.7,5.9,4.9,4.9,3.9C2,6.5,0.2,10.2,0,14.4h6.5C6.6,11.5,7.3,8.8,8.5,6.3z" />
      <path d="M14.3,0.7c-1.6,1.4-3,3.1-4,5c1.3,0.5,2.6,0.7,4,0.8V0.7z" />
      <path d="M6.5,15.6H0c0.2,4.1,2,7.8,4.9,10.4c1.1-0.9,2.3-1.7,3.7-2.3C7.3,21.3,6.6,18.5,6.5,15.6z" />
      <path d="M16.7,29.9c2.8-0.3,5.3-1.4,7.4-2.9c-1-0.9-2.2-1.6-3.4-2.1C19.6,26.8,18.2,28.5,16.7,29.9z" />
      <path d="M21.2,23.8c1.4,0.6,2.7,1.4,3.8,2.4c2.9-2.6,4.8-6.4,5-10.5h-6.8C23.1,18.5,22.4,21.3,21.2,23.8z" />
      <path d="M15.5,14.4h6.4c-0.1-2.7-0.7-5.2-1.8-7.5c-1.5,0.5-3,0.8-4.6,0.8V14.4z" />
      <path d="M9.1,24.9c-1.2,0.5-2.3,1.2-3.3,2c2,1.6,4.5,2.6,7.2,3C11.5,28.4,10.1,26.8,9.1,24.9z" />
      <path d="M10.3,24.4c1.1,1.8,2.4,3.5,4,4.9v-5.6C12.9,23.7,11.5,24,10.3,24.4z" />
      <path d="M14.3,7.7c-1.6-0.1-3.2-0.4-4.6-0.9c-1.1,2.3-1.8,4.9-1.8,7.6h6.5V7.7z" />
      <path d="M7.8,15.6c0.1,2.7,0.8,5.3,1.9,7.7c1.4-0.5,3-0.8,4.6-0.9v-6.8H7.8z" />
    </g>
  </svg>