<?xml-stylesheet type="text/css" href="../../../css/main.css"?>
  <svg version="1.1" id="Layer_1" xmlns="http://www.w3.org/2000/svg" xmlns:xlink="http://www.w3.org/1999/xlink" x="0px" y="0px" viewBox="0 0 30 30" enable-background="new 0 0 30 30" xml:space="preserve">
    <g>
      <path d="M14,2.2c-5,0-9.9,2.8-12.3,7.5c-3.5,6.8-0.8,15.2,6,18.7c6.8,3.5,15.2,0.8,18.7-6c1.4-2.8,1.8-5.8,1.3-8.6
    l-15.3,2.8L14,2.2z" />
      <path d="M18.3,2.5c1.1,0.2,2.2,0.6,3.2,1.1C24,4.9,26,7.1,27,9.8l-9.7,1.8L18.3,2.5 M16.2,0L16.2,0l-1.6,14.4
    l15.3-2.8c-0.7-4.2-3.3-8-7.3-10.1C20.5,0.5,18.3,0,16.2,0" />
    </g>
  </svg>
