<?xml-stylesheet type="text/css" href="../../../css/main.css"?>
<svg xmlns="http://www.w3.org/2000/svg" viewBox="-944 526 30 30">
  
  <g id="Layer_2">
    <circle cx="372.8" cy="1249.9" r="8.3" class="st2"/>
    <circle cx="378.2" cy="1267.9" r="7" class="st2"/>
    <circle cx="372.8" cy="1285.9" r="6" class="st2"/>
    <circle cx="354.6" cy="1293.1" r="5.5" class="st2"/>
    <circle cx="336.7" cy="1285.9" r="4.5" class="st2"/>
    <circle cx="330.5" cy="1267.9" r="3.5" class="st2"/>
    <circle cx="336.7" cy="1249.9" r="3" class="st2"/>
    <circle cx="354.6" cy="1244.1" r="2.5" class="st2"/>
    <path d="M-926.3 539.5l-4.6-4.2h3.8l6.2 5.8-6.2 5.8h-3.8l4.6-4.4h-10.5v-3h10.5zm-2.8-11.7c7.2 0 13.3 6 13.3 13.3 0 7.2-6 13.1-13.3 13.1-7.2 0-13.1-5.8-13.1-13.1 0-7.2 5.9-13.3 13.1-13.3m0-1.8c-8.3 0-14.9 6.6-14.9 15.1 0 8.3 6.6 14.9 14.9 14.9 8.5 0 15.1-6.6 15.1-14.9 0-8.5-6.6-15.1-15.1-15.1" />
    <path d="M-926.3 539.5l-4.6-4.2h3.8l6.2 5.8-6.2 5.8h-3.8l4.6-4.4h-10.5v-3h10.5zm-2.8-11.7c7.2 0 13.3 6 13.3 13.3 0 7.2-6 13.1-13.3 13.1-7.2 0-13.1-5.8-13.1-13.1 0-7.2 5.9-13.3 13.1-13.3m0-1.8c-8.3 0-14.9 6.6-14.9 15.1 0 8.3 6.6 14.9 14.9 14.9 8.5 0 15.1-6.6 15.1-14.9 0-8.5-6.6-15.1-15.1-15.1" />
  </g>
</svg>