<?xml-stylesheet type="text/css" href="../../../css/main.css"?>
  <svg version="1.1" id="Layer_1" xmlns="http://www.w3.org/2000/svg" xmlns:xlink="http://www.w3.org/1999/xlink" x="0px" y="0px" viewBox="0 0 30 30" enable-background="new 0 0 30 30" xml:space="preserve">
    <g>
      <path d="M14.3,0.2L0,5.8v15.5l17.3,8.5L30,21.3V5.9v0L14.3,0.2z M17.9,12.3L3.8,6.8l4.2-1.7l13.5,5.2L17.9,12.3z
     M17.1,27.2L2.3,19.9V7.4l0.2-0.1l14.8,5.8v13.9L17.1,27.2z M24.2,8.9l-13-5l3.1-1.2l12.9,4.7L24.2,8.9z" />
      <polygon points="11.5,19.9 12.7,20.4 12.7,16.8 13.8,17.2 12.1,13.8 10.4,16.1 11.5,16.5  " />
      <polygon points="6.9,18 8.1,18.4 8.1,15.2 9.2,15.6 7.5,12.2 5.8,14.4 6.9,14.8   " />
      <polygon points="5.8,19.8 13.8,23.7 13.8,22.2 5.8,18.4  " />
    </g>
  </svg>
