<?xml-stylesheet type="text/css" href="../../../css/main.css"?>
  <svg version="1.1" id="Layer_1" xmlns="http://www.w3.org/2000/svg" xmlns:xlink="http://www.w3.org/1999/xlink" x="0px" y="0px" viewBox="0 0 30 30" enable-background="new 0 0 30 30" xml:space="preserve">
    <g>
      <g>
        <g>
          <path d="M15,0C6.8,0,0,6.6,0,15.1C0,23.4,6.8,30,15,30c8.2,0,15-6.6,15-14.9C30,6.6,23.2,0,15,0z M15,28.2
        c-7.2,0-13-5.8-13-13.1C2,7.9,7.8,1.8,15,1.8c7.2,0,13,6,13,13.3C28,22.3,22.2,28.2,15,28.2z" />
        </g>
      </g>
      <g>
        <g>
          <path d="M15,8.4l3.8,1.6l0.5,0.2l0.5-0.3l1.9-1v11.4l-2.5,1.3L15.5,20L15,19.8l-0.5,0.3l-3.2,1.6l-3-1.3V8.9
        l2.6,1.1l0.5,0.2l0.5-0.3L15,8.4z M23,7l-3.7,1.8L15,7l-3.7,1.8L7,7v14.2l4.3,1.8l3.7-1.8l4.3,1.8l3.7-1.8V7z" />
        </g>
        <g>
          <path d="M15,21.2l3.7,1.6c-0.2-4.1-2.2-4.8-3.7-4.8c-0.3,0-0.6,0.4-1.2,0c-1.1-0.6-0.7-2.3-2.5-2.4
        c-1.5-1.5-3.7-1.2-3.7-1.2H7v6.8l4.3,1.8L15,21.2z" />
        </g>
        <g>
          <polygon points="21.8,19.5 18.7,17 14.7,13.5 11.1,13.7 7.2,11.9 8,10.2 11.5,11.8 15.3,11.6 19.9,15.6 23,18.1 
              " />
        </g>
        <g>
          <rect x="19.3" y="9.7" transform="matrix(0.4855 0.8742 -0.8742 0.4855 21.3227 -10.5394)" width="0.6" height="6.3" />
        </g>
      </g>
    </g>
  </svg>
