<?xml-stylesheet type="text/css" href="../../../css/main.css"?>
  <svg version="1.1" id="Layer_1" xmlns="http://www.w3.org/2000/svg" xmlns:xlink="http://www.w3.org/1999/xlink" x="0px" y="0px" viewBox="0 0 30 30" enable-background="new 0 0 30 30" xml:space="preserve">
    <g>
      <path d="M14.9,0C6.6,0,0,6.8,0,15c0,8.2,6.6,15,14.9,15C23.4,30,30,23.2,30,15C30,6.8,23.4,0,14.9,0z M14.9,27.8
    C7.9,27.8,2,22,2,15C2,8,7.9,2.2,14.9,2.2C22.1,2.2,27.8,8,27.8,15C27.8,22,22.1,27.8,14.9,27.8z" />
      <path d="M18.1,8.8c-0.4-0.2-0.8-0.2-1.2-0.2c-2.2,0-4.2,1.6-4.8,3.8c-0.4,1.2,0,2.6,0.6,3.6l-3.8,3.8
    c-0.4,0.4-0.4,1.2,0,1.8C9.1,21.8,9.5,22,9.7,22c0.4,0,0.8-0.2,1-0.4l3.6-3.8c0.4,0.2,1,0.4,1.4,0.6c0.4,0,0.8,0.2,1.2,0.2
    c2.2,0,4.2-1.6,4.8-3.8c0.4-1.4,0.2-2.6-0.6-3.8C20.5,9.8,19.3,9.2,18.1,8.8z M20.3,14.4C19.9,16,18.5,17,16.9,17h-0.8
    c-1.8-0.6-3-2.4-2.6-4.2c0.4-1.6,1.8-2.6,3.4-2.6h0.8c1,0.2,1.6,0.8,2.2,1.6C20.3,12.6,20.5,13.6,20.3,14.4z" />
    </g>
  </svg>
