<?xml-stylesheet type="text/css" href="../../../css/main.css"?>
  <svg version="1.1" id="Layer_1" xmlns="http://www.w3.org/2000/svg" xmlns:xlink="http://www.w3.org/1999/xlink" x="0px" y="0px" viewBox="0 0 30 30" enable-background="new 0 0 30 30" xml:space="preserve">
    <path d="M19.6,10.6L19.6,10.6h-9.2c-0.4,0-0.8-0.2-0.8-0.8c0-0.4,0.4-0.6,0.8-0.6h9.2c0.4,0,0.8,0.2,0.8,0.8
  C20.4,10.4,20,10.6,19.6,10.6 M16.4,8.2c0-0.4-0.2-0.6-0.4-0.6h-2c-0.4,0-0.6,0.2-0.6,0.6c0,0.2,0.2,0.4,0.6,0.4h2
  C16.2,8.6,16.4,8.4,16.4,8.2 M19.6,12.4l-0.4,8.2c0,0.6-0.6,1.2-1.2,1.2h-6c-0.6,0-1-0.6-1.2-1.2l-0.4-8.2c0-0.6,0.6-1,1.2-1h6.8
  C19.2,11.4,19.6,11.8,19.6,12.4 M13,20l-0.2-7c0-0.2-0.2-0.4-0.6-0.4c-0.2,0-0.4,0.2-0.4,0.4l0.2,7.2c0,0.2,0.2,0.4,0.6,0.4
  C12.8,20.6,13,20.4,13,20 M15.4,13c0-0.2-0.2-0.4-0.4-0.4c-0.2,0-0.6,0.2-0.6,0.4v7.2c0,0.2,0.2,0.4,0.6,0.4c0.2,0,0.4-0.2,0.4-0.4
  V13z M18.2,13c0-0.2-0.2-0.4-0.6-0.4c-0.2,0-0.4,0.2-0.4,0.4l-0.4,7c0,0.4,0.4,0.6,0.6,0.6c0.2,0,0.4-0.2,0.6-0.4L18.2,13z M15,0
  C6.8,0,0,6.6,0,15c0,8.2,6.8,15,15,15c8.2,0,15-6.8,15-15C30,6.6,23.2,0,15,0 M15,1.8c7.2,0,13,6,13,13.2c0,7.2-5.8,13-13,13
  S2,22.2,2,15C2,7.8,7.8,1.8,15,1.8" />
  </svg>
