<?xml-stylesheet type="text/css" href="../../../css/main.css"?>
  <svg version="1.1" id="Layer_1" xmlns="http://www.w3.org/2000/svg" xmlns:xlink="http://www.w3.org/1999/xlink" x="0px" y="0px" viewBox="0 0 30 30" enable-background="new 0 0 30 30" xml:space="preserve">
    <g>
      <path d="M17.9,12.5c0-0.2-0.2-0.2-0.2-0.4l-3.1-2.9c-0.2-0.4-0.4-0.4-0.8-0.4H9.5c-0.6,0-1.2,0.4-1.2,1v9.9
    c0,0.6,0.6,1.2,1.2,1.2h7.4c0.6,0,1.2-0.6,1.2-1.2v-6.8h-0.2V12.5z M16.9,19.7H9.5V9.7h3.3v3.1c0,0.6,0.4,1.2,1,1.2h3.1V19.7z
     M13.8,12.9V9.7l3.1,3.1H13.8z" />
      <path d="M15,0C6.8,0,0,6.8,0,15s6.8,15,15,15c8.2,0,15-6.8,15-15S23.2,0,15,0z M15,28.1C7.8,28.1,1.9,22.2,1.9,15
    C1.9,7.8,7.8,1.9,15,1.9c7.2,0,13.1,5.8,13.1,13.1C28.1,22.2,22.2,28.1,15,28.1z" />
      <path d="M17.5,9.4c-0.6-0.6-1.2-0.6-1.4-0.6H16h-0.4l3.1,2.9c0.2,0.4,0.4,0.8,0.4,1.2v7c0,0.4-0.2,0.6-0.4,1h0.4
    c0.6,0,1-0.6,1-1.2v-7.2c0-0.4-0.2-0.8-0.4-1L17.5,9.4z" />
      <path d="M19.9,9.4c-0.6-0.6-1-0.6-1.4-0.6h-0.2h-0.2l2.7,2.7c0.2,0.2,0.2,0.6,0.2,0.8v7.6c0,0.4,0,0.6-0.2,1H21
    c0.6,0,1.2-0.6,1.2-1.2v-7.6c0-0.2-0.2-0.6-0.4-0.8L19.9,9.4z" />
    </g>
  </svg>
