<?xml-stylesheet type="text/css" href="../../../css/main.css"?>
  <svg version="1.1" id="Layer_1" xmlns="http://www.w3.org/2000/svg" xmlns:xlink="http://www.w3.org/1999/xlink" x="0px" y="0px" viewBox="0 0 30 30" enable-background="new 0 0 30 30" xml:space="preserve">
    <g>
      <g>
        <path d="M21.5,8.5h-0.5v1.1h-1.6V8.5h-8.6v1.1H9.1V8.5H8.5C8.2,8.5,8,8.8,8,9.1v11.8c0,0.3,0.2,0.5,0.5,0.5h0.5
      v-0.5h1.6v0.5h8.6v-0.5h1.6v0.5h0.5c0.3,0,0.5-0.2,0.5-0.5V9.1C22,8.8,21.8,8.5,21.5,8.5 M10.7,19.3H9.1v-1.6h1.6V19.3z
       M10.7,16.1H9.1v-1.6h1.6V16.1z M10.7,12.8H9.1v-1.6h1.6V12.8z M17.5,15.4l-3.5,2c-0.1,0-0.1,0-0.2,0c-0.1,0-0.1,0-0.2-0.1
      c-0.1-0.1-0.2-0.2-0.2-0.3V13c0-0.1,0.1-0.3,0.2-0.3c0.1-0.1,0.3-0.1,0.4,0l3.5,2c0.1,0.1,0.2,0.2,0.2,0.4
      C17.7,15.1,17.6,15.3,17.5,15.4 M20.9,19.3h-1.6v-1.6h1.6V19.3z M20.9,16.1h-1.6v-1.6h1.6V16.1z M20.9,12.8h-1.6v-1.6h1.6V12.8z" />
      </g>
      <path d="M14.9,0C6.6,0,0,6.6,0,15.1C0,23.4,6.6,30,14.9,30C23.4,30,30,23.4,30,15.1C30,6.6,23.4,0,14.9,0z
     M14.9,28.2c-7.2,0-13.1-5.8-13.1-13.1c0-7.2,5.8-13.3,13.1-13.3c7.2,0,13.3,6,13.3,13.3C28.2,22.4,22.1,28.2,14.9,28.2z" />
    </g>
  </svg>
