<?xml-stylesheet type="text/css" href="../../../css/main.css"?>
  <svg version="1.1" id="Layer_1" xmlns="http://www.w3.org/2000/svg" xmlns:xlink="http://www.w3.org/1999/xlink" x="0px" y="0px" viewBox="0 0 30 30" enable-background="new 0 0 30 30" xml:space="preserve">
    <path d="M15,2C7.8,2,2,7.8,2,15c0,7.2,5.8,13,13,13c7.2,0,13.2-5.8,13.2-13C28.2,7.8,22.2,2,15,2 M15,0
  c8.4,0,15,6.8,15,15c0,8.2-6.6,15-15,15C6.8,30,0,23.2,0,15C0,6.8,6.8,0,15,0 M10.2,21.4c0.2,0,0.2-0.2,0-0.4l-1-1.2
  c-0.2-0.2-0.4,0-0.4,0.2l-0.4,1.4c-0.2,0.2,0,0.4,0.2,0.4L10.2,21.4z M21.2,9c-1.2-1.2-2.4-0.4-2.4-0.4c-0.2,0.2-0.6,0.6-0.8,0.6
  c-0.2,0.2-0.2,0.6,0,0.8l2.2,2c0.2,0.2,0.4,0.2,0.6,0c0.2-0.2,0.4-0.4,0.6-0.6C21.4,11.4,22.4,10.2,21.2,9 M12.6,20.2
  c-0.2,0.2-0.4,0.2-0.6,0l-2.2-2c-0.2-0.2-0.2-0.6,0-0.8l6.8-6.8c0.2-0.2,0.6-0.2,0.8,0l2,2.2c0.2,0.2,0.2,0.4,0,0.6L12.6,20.2z" />
  </svg>
