<?xml-stylesheet type="text/css" href="../../../css/main.css"?>
  <svg version="1.1" id="Layer_1" xmlns="http://www.w3.org/2000/svg" xmlns:xlink="http://www.w3.org/1999/xlink" x="0px" y="0px" viewBox="0 0 30 30" enable-background="new 0 0 30 30" xml:space="preserve">
    <g>
      <g>
        <g>
          <path d="M17.5,7H7.6C7.2,7,7,7.3,7,7.6v9.9c0,0.3,0.3,0.6,0.6,0.6h9.9c0.3,0,0.6-0.3,0.6-0.6V7.6
        C18.1,7.3,17.8,7,17.5,7 M16.9,15.7H8.2V8.2h8.7V15.7z" />
        </g>
        <g>
          <path d="M20.7,9.1l-1.9-0.3V10l1.1,0.2l-1.1,6.5v0.8c0,0.7-0.6,1.2-1.2,1.2h-6.5l7.8,1.3c0.3,0.1,0.7-0.2,0.7-0.5
        l1.7-9.8C21.2,9.5,21,9.2,20.7,9.1" />
        </g>
        <g>
          <path d="M22.6,12.1l-1.1-0.3l-0.2,1.2l0.4,0.1L20,20.4l-0.2-0.1c-0.2,0.2-0.5,0.4-0.9,0.4c-0.1,0-0.1,0-0.2,0
        l-8.6-1.5L9.9,20c-0.1,0.3,0.1,0.7,0.5,0.7L20,23c0.3,0.1,0.7-0.1,0.7-0.5l2.3-9.6C23.1,12.6,22.9,12.2,22.6,12.1" />
        </g>
        <g>
          <g>
            <rect x="9.4" y="9.4" width="5.6" height="1.3" />
          </g>
          <g>
            <rect x="9.4" y="13.1" width="5.6" height="1.3" />
          </g>
          <g>
            <rect x="9.4" y="11.2" width="4.2" height="1.3" />
          </g>
        </g>
      </g>
      <g>
        <g>
          <path d="M15,0C6.8,0,0,6.6,0,15.1C0,23.4,6.8,30,15,30c8.2,0,15-6.6,15-14.9C30,6.6,23.2,0,15,0z M15,28.2
        c-7.2,0-13-5.8-13-13.1C2,7.9,7.8,1.8,15,1.8c7.2,0,13,6,13,13.3C28,22.3,22.2,28.2,15,28.2z" />
        </g>
      </g>
    </g>
  </svg>
