<?xml-stylesheet type="text/css" href="../../../css/main.css"?>
  <svg version="1.1" id="Layer_1" xmlns="http://www.w3.org/2000/svg" xmlns:xlink="http://www.w3.org/1999/xlink" x="0px" y="0px" viewBox="0 0 30 30" enable-background="new 0 0 30 30" xml:space="preserve">
    <path d="M12.2,16.5l4.6,4.4h-3.6L7,15.1l6-5.8h3.8l-4.6,4.2h10.4v3H12.2z M30,15.1C30,23.4,23.2,30,15,30
  C6.8,30,0,23.4,0,15.1C0,6.6,6.8,0,15,0C23.2,0,30,6.6,30,15.1 M28,15.1c0-7.2-5.8-13.3-13-13.3c-7.2,0-13,6-13,13.3
  c0,7.2,5.8,13.1,13,13.1C22.2,28.2,28,22.3,28,15.1" />
  </svg>
