<?xml-stylesheet type="text/css" href="../../../css/main.css"?>
  <svg version="1.1" id="Layer_1" xmlns="http://www.w3.org/2000/svg" xmlns:xlink="http://www.w3.org/1999/xlink" x="0px" y="0px" viewBox="0 0 30 30" enable-background="new 0 0 30 30" xml:space="preserve">
    <g>
      <path d="M24,27.1c-2.7,2.1-5.9,2.9-9,2.9c-4.6,0-9-1.9-11.9-5.9C-1.9,17.6-0.7,8,5.8,2.9C8.5,0.8,11.9,0,15,0
    c4.4,0,9,1.9,11.9,5.9C32,12.6,30.7,22,24,27.1 M25.3,7.1C23,3.8,19,1.9,15,1.9c-2.9,0-5.6,1-8,2.7C1.4,9,0.2,17.2,4.5,22.9
    c2.5,3.4,6.3,5.2,10.5,5.2c2.9,0,5.6-0.8,7.9-2.7C28.6,21,29.7,12.8,25.3,7.1" />
      <polygon points="20.3,7.7 13.5,18 9.1,14.3 7,16.8 13.8,22.7 23.1,9.6  " />
    </g>
  </svg>
