<?xml-stylesheet type="text/css" href="../../../css/main.css"?>
  <svg version="1.1" id="Layer_1" xmlns="http://www.w3.org/2000/svg" xmlns:xlink="http://www.w3.org/1999/xlink" x="0px" y="0px" viewBox="0 0 30 30" enable-background="new 0 0 30 30" xml:space="preserve">
    <g>
      <path d="M21.4,0.4C20.5,0,19.6,0,18.7,0c-5,0-9.5,3.6-10.8,8.5c-0.9,2.7,0,5.8,1.4,8.1l-8.6,8.5
    c-0.9,0.9-0.9,2.7,0,4C1.1,29.6,2,30,2.5,30c0.9,0,1.8-0.4,2.3-0.9l8.1-8.5c0.9,0.4,2.3,0.9,3.2,1.3c0.9,0,1.8,0.4,2.7,0.4
    c5,0,9.5-3.6,10.8-8.5c0.9-3.1,0.5-5.8-1.4-8.5C26.8,2.7,24.1,1.3,21.4,0.4z M26.4,13c-0.9,3.6-4.1,5.8-7.7,5.8h-1.8
    c-4.1-1.3-6.8-5.4-5.9-9.4c0.9-3.6,4.1-5.8,7.7-5.8h1.8c2.3,0.4,3.6,1.8,5,3.6C26.4,9,26.8,11.2,26.4,13z" />
    </g>
  </svg>
