<?xml-stylesheet type="text/css" href="../../../css/main.css"?>
  <svg version="1.1" id="Layer_1" xmlns="http://www.w3.org/2000/svg" xmlns:xlink="http://www.w3.org/1999/xlink" x="0px" y="0px" viewBox="0 0 30 30" enable-background="new 0 0 30 30" xml:space="preserve">
    <g>
      <path d="M6.9,20.2C3.4,20.2,0,19.6,0,17.6V17c0-1.6,2.7-3.2,5-4c0.1,0,0.8-0.4,0.4-1.7h0c-1.1-1.2-2-3.2-2-5.1
    c0-3,1.9-4.5,4-4.5c2,0,3.7,1.3,3.9,3.8c-2,1.2-3.2,3.4-3.2,6.2c0,2.3,0.9,4.7,2.3,6.6C9.4,18.7,8.1,19.4,6.9,20.2 M25,13
    c-0.1,0-0.8-0.4-0.4-1.7h0c1.1-1.2,2-3.2,2-5.1c0-3-1.9-4.5-4-4.5c-2,0-3.7,1.3-3.9,3.8c2,1.2,3.2,3.4,3.2,6.2
    c0,2.3-0.9,4.8-2.3,6.6c1.1,0.4,2.5,1,3.7,1.9c3.4-0.1,6.8-0.6,6.8-2.6V17C30,15.4,27.3,13.9,25,13 M18,19.8c-0.1,0-1-0.4-0.5-2.1
    h0c1.4-1.4,2.4-3.7,2.4-6c0-3.5-2.3-5.3-5-5.3c-2.7,0-4.9,1.8-4.9,5.3c0,2.3,1,4.6,2.4,6c0.5,1.4-0.4,2-0.6,2
    c-2.8,1-6.1,2.9-6.1,4.7v0.7c0,2.5,4.8,3.1,9.2,3.1c4.4,0,9.2-0.6,9.2-3.1v-0.7C24.2,22.6,20.9,20.8,18,19.8" />
    </g>
  </svg>
