<?xml-stylesheet type="text/css" href="../../../css/main.css"?> 
<svg version="1.1" xmlns="http://www.w3.org/2000/svg" x="0px" y="0px" viewBox="-944 526 30 30">
  <style type="text/css">
  .st0 {
    fill: #333;
  }
  </style>
  <g id="Layer_2"  >
    <g class="st1">
      <circle class="st2" cx="372.8" cy="1249.9" r="8.3" />
      <circle class="st2" cx="378.2" cy="1267.9" r="7" />
      <circle class="st2" cx="372.8" cy="1285.9" r="6" />
      <circle class="st2" cx="354.6" cy="1293.1" r="5.5" />
      <circle class="st2" cx="336.7" cy="1285.9" r="4.5" />
      <circle class="st2" cx="330.5" cy="1267.9" r="3.5" />
      <circle class="st2" cx="336.7" cy="1249.9" r="3" />
      <circle class="st2" cx="354.6" cy="1244.1" r="2.5" />
      <path class="st2" d="M-926.3,539.5l-4.6-4.2h3.8l6.2,5.8l-6.2,5.8h-3.8l4.6-4.4h-10.5v-3C-936.8,539.5-926.3,539.5-926.3,539.5z
             M-929.1,527.8c7.2,0,13.3,6,13.3,13.3c0,7.2-6,13.1-13.3,13.1c-7.2,0-13.1-5.8-13.1-13.1C-942.2,533.9-936.3,527.8-929.1,527.8
             M-929.1,526c-8.3,0-14.9,6.6-14.9,15.1c0,8.3,6.6,14.9,14.9,14.9c8.5,0,15.1-6.6,15.1-14.9C-914,532.6-920.6,526-929.1,526" />
      <path class="st2" d="M-926.3,539.5l-4.6-4.2h3.8l6.2,5.8l-6.2,5.8h-3.8l4.6-4.4h-10.5v-3H-926.3z M-929.1,527.8
    c7.2,0,13.3,6,13.3,13.3c0,7.2-6,13.1-13.3,13.1c-7.2,0-13.1-5.8-13.1-13.1C-942.2,533.9-936.3,527.8-929.1,527.8 M-929.1,526
    c-8.3,0-14.9,6.6-14.9,15.1c0,8.3,6.6,14.9,14.9,14.9c8.5,0,15.1-6.6,15.1-14.9C-914,532.6-920.6,526-929.1,526" />
    </g>
  </g>
</svg>
