<?xml-stylesheet type="text/css" href="../../../css/main.css"?>
  <svg version="1.1" id="Layer_1" xmlns="http://www.w3.org/2000/svg" xmlns:xlink="http://www.w3.org/1999/xlink" x="0px" y="0px" viewBox="0 0 30 30" enable-background="new 0 0 30 30" xml:space="preserve">
    <g>
      <g>
        <g>
          <path d="M7.7,23.3C7.3,23.3,7,23,7,22.6v-4c0-0.4,0.3-0.7,0.7-0.7H9c0.4,0,0.7,0.3,0.7,0.7v4
        c0,0.4-0.3,0.7-0.7,0.7H7.7z" />
        </g>
        <g>
          <path d="M11,23.3c-0.4,0-0.7-0.3-0.7-0.7v-5.3c0-0.4,0.3-0.7,0.7-0.7h1.3c0.4,0,0.7,0.3,0.7,0.7v5.3
        c0,0.4-0.3,0.7-0.7,0.7H11z" />
        </g>
        <g>
          <path d="M14.3,23.3c-0.4,0-0.7-0.3-0.7-0.7v-7.3c0-0.4,0.3-0.7,0.7-0.7h1.3c0.4,0,0.7,0.3,0.7,0.7v7.3
        c0,0.4-0.3,0.7-0.7,0.7H14.3z" />
        </g>
        <g>
          <path d="M17.7,23.3c-0.4,0-0.7-0.3-0.7-0.7v-6c0-0.4,0.3-0.7,0.7-0.7H19c0.4,0,0.7,0.3,0.7,0.7v6
        c0,0.4-0.3,0.7-0.7,0.7H17.7z" />
        </g>
        <g>
          <path d="M21,23.3c-0.4,0-0.7-0.3-0.7-0.7v-8.7c0-0.4,0.3-0.7,0.7-0.7h1.3c0.4,0,0.7,0.3,0.7,0.7v8.7
        c0,0.4-0.3,0.7-0.7,0.7H21z" />
        </g>
        <g>
          <path d="M8.3,15.4c-0.3,0-0.5-0.1-0.7-0.4c-0.2-0.4-0.1-0.9,0.3-1.1l3.3-1.9l3.3-2.6c0.2-0.1,0.4-0.2,0.7-0.2
        l3,0.6l3-2.5C21.5,7,22,7.1,22.2,7.4c0.3,0.3,0.2,0.8-0.1,1.1l-3.3,2.7c-0.2,0.2-0.4,0.2-0.7,0.2l-3-0.6l-3.1,2.4
        c0,0-0.1,0-0.1,0.1l-3.3,1.9C8.6,15.3,8.5,15.4,8.3,15.4z" />
        </g>
        <g>
          <path d="M22.9,7.9c0,0.7-0.5,1.2-1.2,1.2c-0.7,0-1.2-0.5-1.2-1.2s0.5-1.2,1.2-1.2C22.3,6.7,22.9,7.3,22.9,7.9" />
        </g>
        <g>
          <path d="M19.5,10.6c0,0.7-0.5,1.2-1.2,1.2c-0.7,0-1.2-0.5-1.2-1.2c0-0.7,0.5-1.2,1.2-1.2
        C19,9.4,19.5,9.9,19.5,10.6" />
        </g>
        <g>
          <path d="M16.2,9.9c0,0.7-0.5,1.2-1.2,1.2c-0.7,0-1.2-0.5-1.2-1.2s0.5-1.2,1.2-1.2C15.7,8.7,16.2,9.3,16.2,9.9" />
        </g>
        <g>
          <path d="M12.9,12.6c0,0.7-0.5,1.2-1.2,1.2c-0.7,0-1.2-0.5-1.2-1.2c0-0.7,0.5-1.2,1.2-1.2
        C12.3,11.4,12.9,11.9,12.9,12.6" />
        </g>
        <g>
          <path d="M9.5,14.6c0,0.7-0.5,1.2-1.2,1.2c-0.7,0-1.2-0.5-1.2-1.2c0-0.7,0.5-1.2,1.2-1.2C9,13.4,9.5,13.9,9.5,14.6
        " />
        </g>
      </g>
      <g>
        <g>
          <path d="M15,0C6.8,0,0,6.6,0,15.1C0,23.4,6.8,30,15,30c8.2,0,15-6.6,15-14.9C30,6.6,23.2,0,15,0z M15,28.2
        c-7.2,0-13-5.8-13-13.1C2,7.9,7.8,1.8,15,1.8c7.2,0,13,6,13,13.3C28,22.3,22.2,28.2,15,28.2z" />
        </g>
      </g>
    </g>
  </svg>
