<?xml-stylesheet type="text/css" href="../../../css/main.css"?>
  <svg version="1.1" id="Layer_1" xmlns="http://www.w3.org/2000/svg" xmlns:xlink="http://www.w3.org/1999/xlink" x="0px" y="0px" viewBox="0 0 30 30" enable-background="new 0 0 30 30" xml:space="preserve">
    <g>
      <g>
        <g>
          <path d="M15,0C6.8,0,0,6.6,0,15.1C0,23.4,6.8,30,15,30c8.2,0,15-6.6,15-14.9C30,6.6,23.2,0,15,0z M15,28.2
        c-7.2,0-13-5.8-13-13.1C2,7.9,7.8,1.8,15,1.8c7.2,0,13,6,13,13.3C28,22.3,22.2,28.2,15,28.2z" />
        </g>
      </g>
      <g>
        <g>
          <path d="M8.4,13.3H6.6v-1.9c0-2.9,1.7-4.8,4.3-4.8s4.3,1.9,4.3,4.8v0.7h-1.8v-0.7c0-1.1-0.3-3-2.4-3
        c-2.2,0-2.4,2.1-2.4,3V13.3z" />
        </g>
        <g>
          <path d="M20.7,12.7h-8.6c-1,0-1.8,0.8-1.8,1.8v6.1c0,1,0.8,1.8,1.8,1.8h8.6c1,0,1.8-0.8,1.8-1.8v-6.1
        C22.5,13.5,21.7,12.7,20.7,12.7 M17,18v1.4c0,0.3-0.3,0.6-0.6,0.6s-0.6-0.3-0.6-0.6V18c-0.4-0.2-0.6-0.6-0.6-1.1
        c0-0.7,0.5-1.2,1.2-1.2c0.7,0,1.2,0.5,1.2,1.2C17.6,17.4,17.4,17.8,17,18" />
        </g>
      </g>
    </g>
  </svg>
