<?xml-stylesheet type="text/css" href="../../../css/main.css"?>
  <svg version="1.1" id="Layer_1" xmlns="http://www.w3.org/2000/svg" xmlns:xlink="http://www.w3.org/1999/xlink" x="0px" y="0px" viewBox="0 0 30 30" enable-background="new 0 0 30 30" xml:space="preserve">
    <path d="M19.8,21.2L15,16.6l-4.6,4.6l-1.6-1.6l4.6-4.6l-4.6-4.8l1.6-1.6l4.6,4.6l4.6-4.6l1.8,1.8L16.8,15l4.6,4.6
  L19.8,21.2z M30,15c0-8.4-6.6-15-15-15C6.8,0,0,6.6,0,15c0,8.2,6.8,15,15,15C23.4,30,30,23.2,30,15 M28.2,15c0,7.2-6,13-13.2,13
  C7.8,28,2,22.2,2,15C2,7.6,7.8,1.8,15,1.8C22.2,1.8,28.2,7.6,28.2,15" />
  </svg>
