<?xml-stylesheet type="text/css" href="../../../css/main.css"?>
  <svg version="1.1" id="Layer_1" xmlns="http://www.w3.org/2000/svg" xmlns:xlink="http://www.w3.org/1999/xlink" x="0px" y="0px" viewBox="0 0 30 30" enable-background="new 0 0 30 30" xml:space="preserve">
    <g>
      <path d="M21.9,28.8c-0.6,0-1.2-0.5-1.2-1.2V2.3c0-0.6,0.5-1.2,1.2-1.2h6.9c0.6,0,1.2,0.5,1.2,1.2v25.4
    c0,0.6-0.5,1.2-1.2,1.2H21.9z" />
      <path d="M11.5,28.8c-0.6,0-1.2-0.5-1.2-1.2V11.5c0-0.6,0.5-1.2,1.2-1.2h6.9c0.6,0,1.2,0.5,1.2,1.2v16.2
    c0,0.6-0.5,1.2-1.2,1.2H11.5z" />
      <path d="M1.2,28.8c-0.6,0-1.2-0.5-1.2-1.2V17.3c0-0.6,0.5-1.2,1.2-1.2h6.9c0.6,0,1.2,0.5,1.2,1.2v10.4
    c0,0.6-0.5,1.2-1.2,1.2H1.2z" />
      <rect x="3.6" y="2.3" transform="matrix(-0.7073 -0.7069 0.7069 -0.7073 4.3975 14.4456)" width="3.2" height="8.1" />
      <polygon points="3.4,1.2 10.4,1.2 10.4,8.1  " />
    </g>
  </svg>
