<svg id="Layer_1" data-name="Layer 1" xmlns="http://www.w3.org/2000/svg" viewBox="0 0 144 144.01">
    <title>Valorem_logo</title>
    <path d="M105.81,168.46a53.84,53.84,0,0,0,39-15.9A51.92,51.92,0,0,0,161.1,114V59.39L161,59.31a23.06,23.06,0,0,0-22.87,22.92V114a34.15,34.15,0,0,1-1.23,8.69c-3.14,9.26-10.48,21.39-27.69,22.52L79.48,74C74,59,62.69,57.62,56,58.26c-1.35,1.42-2.66,2.89-3.9,4.42l44.1,105.79h9.65Z" transform="translate(-36 -36)" style="fill:#fff" />
    <path d="M79.48,74l29.77,71.21c17.21-1.13,24.55-13.26,27.69-22.52a34.15,34.15,0,0,0,1.23-8.69V82.22A23.06,23.06,0,0,1,161,59.31,72,72,0,0,0,56,58.26C62.69,57.62,74,59,79.48,74Z" transform="translate(-36 -36)" style="fill:#005da6" />
    <path d="M161.1,59.39V114a51.92,51.92,0,0,1-16.25,38.55,53.84,53.84,0,0,1-39,15.9H96.16L52.06,62.68A72,72,0,1,0,161.1,59.39Z" transform="translate(-36 -36)" style="fill:#4c8c40" />
</svg>
