<?xml-stylesheet type="text/css" href="../../../css/main.css"?>
  <svg version="1.1" id="Layer_1" xmlns="http://www.w3.org/2000/svg" xmlns:xlink="http://www.w3.org/1999/xlink" x="0px" y="0px" viewBox="0 0 30 30" enable-background="new 0 0 30 30" xml:space="preserve">
    <g>
      <g>
        <g>
          <path d="M21.9,14.3c-0.1,0-0.2,0-0.3-0.1c-0.2-0.1-0.3-0.4-0.2-0.7c0,0,1-1.7,1-3.9c0-1.3-0.8-2.2-2-2.2
        c-1.1,0-2,0.9-2,2c0,0.5,0.2,1.6,0.3,2c0.1,0.3-0.1,0.5-0.4,0.6c-0.3,0.1-0.5-0.1-0.6-0.4c0-0.2-0.3-1.6-0.3-2.2
        c0-1.6,1.3-2.9,2.9-2.9c1.7,0,2.9,1.4,2.9,3.2c0,2.5-1.1,4.3-1.1,4.4C22.3,14.2,22.1,14.3,21.9,14.3z" />
        </g>
        <g>
          <path d="M20.6,10.4c-0.1-1-0.1-1-1.1-1.1c-0.2,0-0.3,0-0.5-0.1c0,0,0,0.1,0,0.1c0,0.2,0.1,0.6,0.1,1
        c0.3,0.2,0.6,0.6,0.6,1.1c0,0.7-0.6,1.3-1.3,1.3c-0.7,0-1.3-0.6-1.3-1.3c0-0.3,0.1-0.5,0.2-0.8c-0.1-0.5-0.2-1-0.2-1.4
        c0-0.1,0-0.2,0-0.3c-1.4-0.1-2.6-0.1-2.7,0l-7.1,7.1c-0.4,0.4-0.4,1.1,0,1.6l4.8,4.8c0.4,0.4,1.1,0.4,1.6,0l7.1-7.1
        C21.1,15.2,20.8,12.1,20.6,10.4 M16,16.3c-0.1-0.2-0.2-0.7-0.7-1.1c-0.4-0.4-0.7-0.3-0.9-0.2c-0.2,0.2-0.1,0.5,0.2,1.3
        c0.5,1,0.4,1.6-0.1,2.2c-0.5,0.5-1.4,0.6-2.2,0l-0.6,0.6l-0.6-0.6l0.6-0.6c-0.4-0.4-0.7-0.9-0.8-1.3l0.9-0.5
        c0.1,0.4,0.3,0.9,0.7,1.3c0.4,0.3,0.7,0.5,1,0.2c0.2-0.2,0.2-0.6-0.1-1.2c-0.4-0.9-0.6-1.6,0-2.2c0.5-0.5,1.3-0.6,2.1-0.1
        l0.6-0.6l0.6,0.6l-0.5,0.5c0.4,0.4,0.6,0.8,0.7,1.1L16,16.3z" />
        </g>
      </g>
      <g>
        <g>
          <path d="M15,0C6.8,0,0,6.6,0,15.1C0,23.4,6.8,30,15,30c8.2,0,15-6.6,15-14.9C30,6.6,23.2,0,15,0z M15,28.2
        c-7.2,0-13-5.8-13-13.1C2,7.9,7.8,1.8,15,1.8c7.2,0,13,6,13,13.3C28,22.3,22.2,28.2,15,28.2z" />
        </g>
      </g>
    </g>
  </svg>
