<?xml-stylesheet type="text/css" href="../../../css/main.css"?>
  <svg version="1.1" id="Layer_1" xmlns="http://www.w3.org/2000/svg" xmlns:xlink="http://www.w3.org/1999/xlink" x="0px" y="0px" viewBox="0 0 30 30" enable-background="new 0 0 30 30" xml:space="preserve">
    <g>
      <g>
        <g>
          <path d="M19.6,0.1H1.2C0.5,0.1,0,0.6,0,1.2v18.5c0,0.6,0.5,1.2,1.2,1.2h18.5c0.6,0,1.2-0.5,1.2-1.2V1.2
        C20.8,0.6,20.3,0.1,19.6,0.1 M18.5,16.2H2.3V2.4h16.2V16.2z" />
        </g>
        <g>
          <path d="M25.6,4l-3.6-0.6v2.3L24,6.1l-2.1,12.1v1.4c0,1.3-1,2.3-2.3,2.3H7.4L22,24.5c0.6,0.1,1.2-0.3,1.3-0.9
        l3.1-18.2C26.6,4.7,26.2,4.1,25.6,4" />
        </g>
        <g>
          <path d="M29.1,9.7L27,9.2l-0.4,2.3l0.8,0.2l-3.2,13.5L23.8,25c-0.4,0.4-1,0.7-1.6,0.7c-0.1,0-0.3,0-0.4,0l-16-2.8
        l-0.3,1.4c-0.1,0.6,0.2,1.2,0.9,1.4l18,4.2c0.6,0.1,1.2-0.2,1.4-0.9l4.2-18C30.1,10.4,29.7,9.8,29.1,9.7" />
        </g>
        <g>
          <g>
            <rect x="4.6" y="4.5" width="10.5" height="2.5" />
          </g>
          <g>
            <rect x="4.6" y="11.4" width="10.5" height="2.5" />
          </g>
          <g>
            <rect x="4.6" y="8" width="7.8" height="2.5" />
          </g>
        </g>
      </g>
    </g>
  </svg>
